<svg xmlns="http://www.w3.org/2000/svg" width="316" height="307" viewBox="0 0 316 307" fill="none">
<rect width="316" height="307" fill="white"/>
<path d="M241 190.93V117.936C241 110.814 237.213 104.23 231.057 100.649L167.838 63.8688C161.604 60.2424 153.901 60.2525 147.678 63.8952L84.8974 100.64C78.7672 104.228 75 110.798 75 117.901L75 190.965C75 198.068 78.7672 204.638 84.8974 208.226L147.678 244.971C153.902 248.614 161.604 248.624 167.838 244.997L231.057 208.217C237.213 204.636 241 198.052 241 190.93Z" stroke="black" stroke-width="8" stroke-linecap="square"/>
<rect x="179" y="207" width="64" height="88" rx="12" transform="rotate(180 179 207)" stroke="black" stroke-width="8"/>
<path d="M189 97L149 97L148.587 97.0049C140.079 97.2205 133.22 104.079 133.005 112.587L133 115L141 115C141 110.582 144.582 105 149 105L189 105C193.418 105 197 108.582 197 113L197 177C197 181.418 193.418 185 189 185L183 185L183 193L189 193C197.837 193 205 185.837 205 177L205 113L204.995 112.587C204.779 104.079 197.921 97.2205 189.413 97.0049L189 97Z" fill="black"/>
<circle cx="98" cy="214" r="56" fill="white" stroke="black" stroke-width="8"/>
<circle cx="209" cy="75" r="40" fill="black"/>
<path d="M91.8573 220.89H79.6773V233.35H68.3373V220.89H56.1573V210.18H68.3373V197.65H79.6773V210.18H91.8573V220.89ZM98.7124 230.41C100.299 229.15 101.022 228.567 100.882 228.66C105.456 224.88 109.049 221.777 111.662 219.35C114.322 216.923 116.562 214.38 118.382 211.72C120.202 209.06 121.112 206.47 121.112 203.95C121.112 202.037 120.669 200.543 119.782 199.47C118.896 198.397 117.566 197.86 115.792 197.86C114.019 197.86 112.619 198.537 111.592 199.89C110.612 201.197 110.122 203.063 110.122 205.49H98.5724C98.6658 201.523 99.5058 198.21 101.092 195.55C102.726 192.89 104.849 190.93 107.462 189.67C110.122 188.41 113.062 187.78 116.282 187.78C121.836 187.78 126.012 189.203 128.812 192.05C131.659 194.897 133.082 198.607 133.082 203.18C133.082 208.173 131.379 212.817 127.972 217.11C124.566 221.357 120.226 225.51 114.952 229.57H133.852V239.3H98.7124V230.41Z" fill="black"/>
<path d="M209.699 70.9V78H187.699V70.9H209.699ZM215.453 63.45V55.5H229.303V92H220.403V63.45H215.453Z" fill="white"/>
</svg>
