<svg xmlns="http://www.w3.org/2000/svg" width="327" height="280" viewBox="0 0 327 280" fill="none">
<rect width="327" height="280" fill="white"/>
<path d="M247 176.93V103.936C247 96.8142 243.213 90.2298 237.057 86.6486L173.838 49.8688C167.604 46.2424 159.901 46.2525 153.678 49.8952L90.8974 86.6402C84.7672 90.2281 81 96.7981 81 103.901L81 176.965C81 184.068 84.7672 190.638 90.8974 194.226L153.678 230.971C159.902 234.614 167.604 234.624 173.838 230.997L237.057 194.217C243.213 190.636 247 184.052 247 176.93Z" stroke="black" stroke-width="8" stroke-linecap="square"/>
<path d="M179.5 92C196.897 92 211 106.108 211 123.512C211 129.603 209.27 135.289 206.278 140.11C206.194 140.387 206.087 140.663 205.953 140.935L184.191 185.071C182.265 188.977 176.697 188.976 174.773 185.069L153.041 140.932C152.905 140.656 152.796 140.376 152.712 140.094C149.726 135.277 148 129.597 148 123.512C148 106.108 162.103 92 179.5 92Z" fill="black"/>
<path d="M147.5 96C162.686 96 175 108.316 175 123.512C175 128.835 173.491 133.794 170.88 138L170.602 138.448L170.449 138.952C170.427 139.024 170.4 139.095 170.365 139.166L148.604 183.303C148.145 184.233 146.82 184.232 146.361 183.302L124.63 139.165C124.593 139.089 124.564 139.017 124.544 138.948L124.392 138.438L124.111 137.986C121.506 133.783 120 128.829 120 123.512C120 108.316 132.314 96 147.5 96Z" stroke="black" stroke-width="8"/>
<circle cx="180" cy="124" r="14" fill="white"/>
</svg>
