<svg xmlns="http://www.w3.org/2000/svg" width="297" height="301" viewBox="0 0 297 301" fill="none">
<rect width="297" height="301" fill="white"/>
<path d="M107.375 223.65L75.8974 205.226C69.7672 201.638 66 195.068 66 187.965L66 114.901C66 107.798 69.7672 101.228 75.8974 97.6402L138.678 60.8952C144.902 57.2525 152.604 57.2424 158.838 60.8688L190.375 79.2165M107.375 223.65L138.678 241.971C144.902 245.614 152.604 245.624 158.838 241.997L222.057 205.217C228.213 201.636 232 195.052 232 187.93V114.936C232 107.814 228.213 101.23 222.057 97.6486L190.375 79.2165M107.375 223.65L190.375 79.2165" stroke="#DC3D38" stroke-width="8" stroke-linecap="square"/>
<rect x="181" y="195" width="64" height="88" rx="12" transform="rotate(180 181 195)" stroke="#DC3D38" stroke-width="8"/>
</svg>
