<svg xmlns="http://www.w3.org/2000/svg" width="316" height="307" viewBox="0 0 316 307" fill="none">
<rect width="316" height="307" fill="white"/>
<path d="M241 190.93V117.936C241 110.814 237.213 104.23 231.057 100.649L167.838 63.8688C161.604 60.2424 153.901 60.2525 147.678 63.8952L84.8974 100.64C78.7672 104.228 75 110.798 75 117.901L75 190.965C75 198.068 78.7672 204.638 84.8974 208.226L147.678 244.971C153.902 248.614 161.604 248.624 167.838 244.997L231.057 208.217C237.213 204.636 241 198.052 241 190.93Z" stroke="black" stroke-width="8" stroke-linecap="square"/>
<rect x="190" y="198" width="64" height="88" rx="12" transform="rotate(180 190 198)" stroke="black" stroke-width="8"/>
<circle cx="98" cy="214" r="56" fill="white" stroke="black" stroke-width="8"/>
<circle cx="209" cy="75" r="40" fill="black"/>
</svg>
