<svg xmlns="http://www.w3.org/2000/svg" width="317" height="288" viewBox="0 0 317 288" fill="none">
<rect width="317" height="288" fill="white"/>
<path d="M242 180.93V107.936C242 100.814 238.213 94.2298 232.057 90.6486L168.838 53.8688C162.604 50.2424 154.901 50.2525 148.678 53.8952L85.8974 90.6402C79.7672 94.2281 76 100.798 76 107.901L76 180.965C76 188.068 79.7672 194.638 85.8974 198.226L148.678 234.971C154.902 238.614 162.604 238.624 168.838 234.997L232.057 198.217C238.213 194.636 242 188.052 242 180.93Z" stroke="black" stroke-width="8" stroke-linecap="square"/>
<circle cx="110.5" cy="199.5" r="46.5" fill="black" stroke="white" stroke-width="8"/>
<path d="M108.48 218.092C107.376 218.092 106.48 217.197 106.48 216.092V182.02C106.48 180.915 107.376 180.02 108.48 180.02H112.927C114.032 180.02 114.927 180.915 114.927 182.02V216.092C114.927 217.197 114.032 218.092 112.927 218.092L108.48 218.092ZM93.9062 203.348C92.8017 203.348 91.9062 202.453 91.9062 201.348V196.594C91.9062 195.489 92.8017 194.594 93.9062 194.594H127.536C128.641 194.594 129.536 195.489 129.536 196.594V201.348C129.536 202.453 128.641 203.348 127.536 203.348H93.9062Z" fill="white"/>
<path d="M159 144 L159 85 A59 59 0 0 1 188.500 92.905 Z" fill="#DC3D38"/>
<rect x="157" y="60" width="4" height="12" rx="2" fill="black"/>
<rect x="161" y="228.393" width="4" height="12" rx="2" transform="rotate(180 161 228.393)" fill="black"/>
<rect x="220" y="146" width="4" height="12" rx="2" transform="rotate(-90 220 146)" fill="black"/>
<rect x="98" y="142.393" width="4" height="12" rx="2" transform="rotate(90 98 142.393)" fill="black"/>
<rect x="194" y="78" width="4" height="12" rx="2" transform="rotate(30 194 78)" fill="black"/>
<rect x="187" y="200" width="4" height="12" rx="2" transform="rotate(-30 187 200)" fill="black"/>
<rect x="131" y="88.3926" width="4" height="12" rx="2" transform="rotate(150 131 88.3926)" fill="black"/>
<rect x="228.393" y="102" width="4" height="12" rx="2" transform="rotate(60 228.393 102)" fill="black"/>
<rect x="89.6074" y="186.393" width="4" height="12" rx="2" transform="rotate(-120 89.6074 186.393)" fill="black"/>
<rect x="218" y="180.465" width="4" height="12" rx="2" transform="rotate(-60 218 180.465)" fill="black"/>
<rect x="100" y="107.928" width="4" height="12" rx="2" transform="rotate(120 100 107.928)" fill="black"/>
</svg>
