<?xml version="1.0" encoding="UTF-8"?>
<!-- Time Bonus (largest 15 min tier) — Jet Lag Hide+Seek hider-card icon.
     Source of truth once edited: hand back / port into src/components/CardTile.tsx.
     The white background rect is a PREVIEW aid only (the card body is white);
     it is not part of the icon. -->
<svg xmlns="http://www.w3.org/2000/svg" viewBox="0 0 100 100" width="400" height="400">
  <rect width="100" height="100" fill="#ffffff"/>
  <!-- tilted hexagon shell (clock face stays upright) -->
  <polygon points="52,9 85,26 88,62 52,85 19,68 16,32" fill="none" stroke="#1F2F3F" stroke-width="7" stroke-linejoin="round"/>
  <!-- tier wedge from 12 o'clock (100°) -->
  <path d="M 52 47 L 52 26 A 21 21 0 0 1 72.68 50.65 Z" fill="#EAA13C"/>
  <line x1="52" y1="22" x2="52" y2="17" stroke="#1F2F3F" stroke-width="3" stroke-linecap="round"/>
  <line x1="64.5" y1="25.35" x2="67" y2="21.02" stroke="#1F2F3F" stroke-width="3" stroke-linecap="round"/>
  <line x1="73.65" y1="34.5" x2="77.98" y2="32" stroke="#1F2F3F" stroke-width="3" stroke-linecap="round"/>
  <line x1="77" y1="47" x2="82" y2="47" stroke="#1F2F3F" stroke-width="3" stroke-linecap="round"/>
  <line x1="73.65" y1="59.5" x2="77.98" y2="62" stroke="#1F2F3F" stroke-width="3" stroke-linecap="round"/>
  <line x1="64.5" y1="68.65" x2="67" y2="72.98" stroke="#1F2F3F" stroke-width="3" stroke-linecap="round"/>
  <line x1="52" y1="72" x2="52" y2="77" stroke="#1F2F3F" stroke-width="3" stroke-linecap="round"/>
  <line x1="39.5" y1="68.65" x2="37" y2="72.98" stroke="#1F2F3F" stroke-width="3" stroke-linecap="round"/>
  <line x1="30.35" y1="59.5" x2="26.02" y2="62" stroke="#1F2F3F" stroke-width="3" stroke-linecap="round"/>
  <line x1="27" y1="47" x2="22" y2="47" stroke="#1F2F3F" stroke-width="3" stroke-linecap="round"/>
  <line x1="30.35" y1="34.5" x2="26.02" y2="32" stroke="#1F2F3F" stroke-width="3" stroke-linecap="round"/>
  <line x1="39.5" y1="25.35" x2="37" y2="21.02" stroke="#1F2F3F" stroke-width="3" stroke-linecap="round"/>
  <!-- "+" badge overlapping the lower-left edge (white knockout ring) -->
  <circle cx="27" cy="70" r="23" fill="#ffffff"/>
  <circle cx="27" cy="70" r="18.5" fill="#1F2F3F"/>
  <path d="M 18.5 70 H 35.5 M 27 61.5 V 78.5" stroke="#ffffff" stroke-width="5.5" stroke-linecap="round"/>
</svg>
