<svg xmlns="http://www.w3.org/2000/svg" viewBox="0 0 297.47 95.85" role="img" aria-label="Jet Lag: The Game"><defs><clipPath id="d"><path d="M174.82 54.9V24.2c0-2.01-1.07-3.87-2.81-4.87L145.42 3.98a5.61 5.61 0 0 0-5.63 0L113.2 19.33a5.627 5.627 0 0 0-2.81 4.87v30.7c0 2.01 1.07 3.87 2.81 4.87l26.59 15.35a5.61 5.61 0 0 0 5.63 0l26.59-15.35a5.627 5.627 0 0 0 2.81-4.87" style="stroke-width:0;fill:none"/></clipPath><style>.g,.h,.i,.j,.k{stroke-width:0}.h{fill:#202f40}.g{fill:#f57a3c}.i{fill:#eb3539}.j{fill:#ffbf40}.k{fill:#f0f0f0}</style></defs><g id="c" data-name="Layer 3"><path class="k" d="M268.41 7.68H16.8c-4.63 0-8.85 1.89-11.88 4.93A16.748 16.748 0 0 0 0 24.48v28.95c0 4.63 1.89 8.85 4.93 11.88 3.03 3.04 7.25 4.93 11.88 4.93h251.61c4.63 0 8.85-1.89 11.88-4.93 3.04-3.03 4.93-7.25 4.93-11.88V24.48c0-4.63-1.89-8.85-4.93-11.88a16.756 16.756 0 0 0-11.88-4.93"/><path d="M268.41 10.9H16.8c-7.49 0-13.58 6.09-13.58 13.58v28.95c0 7.49 6.09 13.58 13.58 13.58h251.61c7.49 0 13.58-6.09 13.58-13.58V24.48c0-7.49-6.09-13.58-13.58-13.58" style="fill:#202f40;fill-rule:evenodd;stroke-width:0"/><path class="k" d="M173.62 16.54 147.03 1.19C145.66.4 144.13 0 142.61 0s-3.06.4-4.43 1.19l-26.59 15.35a8.849 8.849 0 0 0-4.43 7.67v30.7c0 3.16 1.69 6.08 4.43 7.66l26.59 15.35c1.37.79 2.9 1.19 4.43 1.19s3.06-.4 4.43-1.19l26.59-15.35a8.845 8.845 0 0 0 4.43-7.66v-30.7c0-3.16-1.69-6.09-4.43-7.67Z"/><g style="clip-path:url(#d)"><path class="h" d="M147.03 36.24h-8.85l-27.79 21.91 32.22 18.6 32.21-18.6-27.79-21.91"/><path class="i" d="M151.46 26.47v9.77c0 7.19 5.85 13.05 13.05 13.05h10.31v4.43h-10.31c-9.64 0-17.48-7.84-17.48-17.48V25.93l4.43.54"/><path class="j" d="M155.89 28.01v8.23c0 4.75 3.86 8.62 8.62 8.62h10.31v4.43h-10.31c-7.19 0-13.05-5.85-13.05-13.05v-9.77l4.43 1.54"/><path class="j" d="M160.32 29.67v6.58c0 2.31 1.88 4.19 4.19 4.19h10.31v4.43h-10.31c-4.75 0-8.62-3.87-8.62-8.62v-8.23l4.43 1.65"/><path class="h" d="M164.51 53.72c-9.64 0-17.48-7.84-17.48-17.48V25.93l-4.43-1.66-4.43 1.66v10.31c0 9.64-7.84 17.48-17.48 17.48h-10.31v4.43h10.31c12.08 0 21.91-9.83 21.91-21.91 0 12.08 9.83 21.91 21.91 21.91h10.31v-4.43h-10.31Z"/><path class="i" d="M133.75 26.47v9.77c0 7.19-5.85 13.05-13.05 13.05h-10.31v4.43h10.31c9.64 0 17.48-7.84 17.48-17.48V25.93l-4.43.54"/><path class="j" d="M129.32 28.01v8.23c0 4.75-3.87 8.62-8.62 8.62h-10.31v4.43h10.31c7.19 0 13.05-5.85 13.05-13.05v-9.77l-4.43 1.54"/><path class="g" d="M151.46 26.47v9.77c0 7.19 5.85 13.05 13.05 13.05h10.31v-4.43h-10.31c-4.75 0-8.62-3.87-8.62-8.62v-8.23l-4.43-1.54M133.75 26.47l-4.43 1.54v8.23c0 4.75-3.87 8.62-8.62 8.62h-10.31v4.43h10.31c7.19 0 13.05-5.85 13.05-13.05v-9.77"/><path class="j" d="M124.89 29.67v6.58c0 2.31-1.88 4.19-4.19 4.19h-10.31v4.43h10.31c4.75 0 8.62-3.87 8.62-8.62v-8.23l-4.43 1.65Z"/></g><path class="h" d="M145.83 21.31v-8.93c0-3.41-1.36-6.29-3.22-6.29s-3.22 2.88-3.22 6.29v8.93l-14.5 8.36v3.73l14.5-3.22 1.23 2.76h3.98l1.23-2.76 14.5 3.22v-3.73l-14.5-8.36Z"/><path class="k" d="M84.72 58.15V26.94h7.09v-7.2H69.08v7.2h7.15v31.21h8.48Zm-19.6-7.2H52.85v-8.8h9.55v-7.2h-9.55v-8h12.27v-7.2H44.37v38.41h20.75v-7.2ZM30.31 19.74v28.01c0 2.56-1.01 3.68-3.04 3.68-1.87 0-2.99-.8-2.99-3.68v-4.53h-7.95v7.15c0 5.28 4.27 8.32 10.94 8.32s11.52-3.09 11.52-11.52V19.75h-8.48ZM269.2 58.15V37.29h-11.36v7.2h3.41v4.32c0 1.81-1.28 2.61-3.41 2.61-2.35 0-3.47-.8-3.47-2.61V29.07c0-1.81 1.12-2.61 3.47-2.61 2.13 0 3.41.8 3.41 2.61v4.53h7.95v-6.08c0-5.28-4.43-8.32-11.36-8.32-7.31 0-11.95 3.04-11.95 8.32v22.83c0 5.28 4 8.32 10.35 8.32 3.15 0 5.71-.8 7.41-2.35l1.17 1.81h4.37Zm-39.76-28.7 2.83 13.71h-5.65l2.83-13.71Zm-5.92 28.7 1.49-7.25h8.85l1.49 7.25h8.48l-9.28-38.41h-10.19l-9.33 38.41h8.48Zm-10.35-7.2h-12.38V19.74h-8.48v38.41h20.86v-7.2Z"/><path class="j" d="m297.43 78.75-2.21-16.79a4.91 4.91 0 0 0-1.85-3.21 4.878 4.878 0 0 0-3.58-.96L201.4 69.43a4.835 4.835 0 0 0-4.16 5.43l2.21 16.79a4.91 4.91 0 0 0 1.85 3.21c1.01.78 2.31 1.12 3.58.96l88.39-11.64a4.835 4.835 0 0 0 4.16-5.43Z"/><path class="h" d="m291.84 75.56-5.29.7-.5-3.79 4.12-.54-.41-3.1-4.12.54-.45-3.45 5.29-.7-.41-3.1-8.94 1.18 2.18 16.56 8.94-1.18-.41-3.1Zm-17.35.44 1.83-5.65.21 1.98 1.09 8.25 3.45-.45-2.18-16.56-3.89.51-2.33 7.51-4.2-6.65-3.89.51 2.18 16.56 3.43-.45-1.09-8.25-.31-2.02 3.23 5.03 2.46-.32Zm-17.02-5.34 2 5.75-2.44.32.44-6.07Zm-.92 12.71.23-3.21 3.82-.5 1.06 3.04 3.66-.48-6.18-16.03-4.39.58-1.84 17.09 3.66-.48Zm-4.99.66-1.18-8.99-4.9.64.41 3.1 1.47-.19.25 1.86c.1.78-.4 1.2-1.32 1.32-1.01.13-1.54-.15-1.64-.93l-1.12-8.51c-.1-.78.33-1.19 1.35-1.32.92-.12 1.52.15 1.62.93l.26 1.96 3.43-.45-.35-2.62c-.3-2.28-2.38-3.34-5.37-2.94-3.15.42-4.98 1.99-4.68 4.27l1.3 9.84c.3 2.28 2.2 3.36 4.93 3 1.36-.18 2.42-.67 3.06-1.43l.61.72 1.89-.25Zm-15.68-1.09-5.29.7-.5-3.79 4.12-.54-.41-3.1-4.12.54-.45-3.45 5.29-.7-.41-3.1-8.95 1.18 2.18 16.56 8.95-1.18-.41-3.1Zm-17.49 5.46-.91-6.9 3.08-.41.91 6.9 3.66-.48-2.18-16.56-3.66.48.86 6.55-3.08.41-.86-6.55-3.66.48 2.18 16.56 3.66-.48Zm-8.38 1.1-1.77-13.45 3.06-.4-.41-3.1-9.8 1.29.41 3.1 3.08-.41 1.77 13.45 3.66-.48Z"/></g></svg>
